<?xml version="1.0" encoding="utf-8"?>
<!-- Generator: Adobe Illustrator 21.0.0, SVG Export Plug-In . SVG Version: 6.00 Build 0)  -->
<svg version="1.1" id="图层_1" xmlns="http://www.w3.org/2000/svg" xmlns:xlink="http://www.w3.org/1999/xlink" x="0px" y="0px"
	 viewBox="0 0 750 1148.5" style="enable-background:new 0 0 750 1148.5;" xml:space="preserve">
<style type="text/css">
	.st0{fill:#EDEDED;}
	.st1{fill:none;}
	.st2{fill:#333333;}
	.st3{font-family:'MicrosoftYaHei';}
	.st4{font-size:28px;}
</style>
<rect y="128.5" class="st0" width="750" height="60"/>
<rect y="248.5" class="st0" width="750" height="60"/>
<rect y="368.5" class="st0" width="750" height="60"/>
<rect y="488.5" class="st0" width="750" height="60"/>
<rect y="608.5" class="st0" width="750" height="60"/>
<rect y="728.5" class="st0" width="750" height="60"/>
<rect y="848.5" class="st0" width="750" height="60"/>
<rect y="968.5" class="st0" width="750" height="60"/>
<rect y="1088.5" class="st0" width="750" height="60"/>
<rect x="20.3" y="142.1" class="st1" width="354.7" height="1532.8"/>
<text transform="matrix(1 0 0 1 133.6338 166.7107)" class="st2 st3 st4">品&#160;&#160;&#160;&#160;&#160;&#160;名</text>
<text transform="matrix(1 0 0 1 133.6336 226.7106)" class="st2 st3 st4">机器型号</text>
<text transform="matrix(1 0 0 1 133.6336 286.7106)" class="st2 st3 st4">高&#160;&#160;&#160;&#160;&#160;&#160;度</text>
<text transform="matrix(1 0 0 1 133.6336 346.7106)" class="st2 st3 st4">宽&#160;&#160;&#160;&#160;&#160;&#160;度</text>
<text transform="matrix(1 0 0 1 133.6336 406.7106)" class="st2 st3 st4">深&#160;&#160;&#160;&#160;&#160;&#160;度</text>
<text transform="matrix(1 0 0 1 133.6336 466.7106)" class="st2 st3 st4">货道规格</text>
<text transform="matrix(1 0 0 1 133.6336 526.7106)" class="st2 st3 st4">货道数量</text>
<text transform="matrix(1 0 0 1 133.6336 586.7106)" class="st2 st3 st4">取 物 口</text>
<text transform="matrix(1 0 0 1 133.6336 646.7106)" class="st2 st3 st4">机器重量</text>
<text transform="matrix(1 0 0 1 133.6336 706.7106)" class="st2 st3 st4">输入电压</text>
<text transform="matrix(1 0 0 1 133.6336 766.7106)" class="st2 st3 st4">最大电流</text>
<text transform="matrix(1 0 0 1 133.6336 826.7106)" class="st2 st3 st4">最大功率</text>
<text transform="matrix(1 0 0 1 133.6336 886.7106)" class="st2 st3 st4">人机界面</text>
<text transform="matrix(1 0 0 1 133.6336 946.7106)" class="st2 st3 st4">支付方式</text>
<text transform="matrix(1 0 0 1 133.6336 1006.7106)" class="st2 st3 st4">温控系统</text>
<text transform="matrix(1 0 0 1 133.6336 1066.7106)" class="st2 st3 st4">数据通讯</text>
<text transform="matrix(1 0 0 1 133.6336 1126.7106)" class="st2 st3 st4">后台管理</text>
<g>
	<rect x="375" y="142.1" class="st1" width="354.7" height="1676.8"/>
	<text transform="matrix(1 0 0 1 504.3665 166.7106)" class="st2 st3 st4">白羊座</text>
	<text transform="matrix(1 0 0 1 514.3665 229.5709)" class="st2 st3 st4">FC02</text>
	<text transform="matrix(1 0 0 1 514.8665 289.5709)" class="st2 st3 st4">1860</text>
	<text transform="matrix(1 0 0 1 514.8665 349.5709)" class="st2 st3 st4">1025</text>
	<text transform="matrix(1 0 0 1 524.2665 409.5709)" class="st2 st3 st4">916</text>
	<text transform="matrix(1 0 0 1 385.0665 469.5709)" class="st2 st3 st4">85*90*615/85*90*395</text>
	<text transform="matrix(1 0 0 1 533.5665 529.5709)" class="st2 st3 st4">28</text>
	<text transform="matrix(1 0 0 1 542.9665 589.5709)" class="st2 st3 st4">1</text>
	<text transform="matrix(1 0 0 1 505.2665 649.5709)" class="st2 st3 st4">247kg</text>
	<text transform="matrix(1 0 0 1 467.5665 709.5709)" class="st2 st3 st4">220V 50HZ</text>
	<text transform="matrix(1 0 0 1 531.7665 769.5709)" class="st2 st3 st4">5A</text>
	<text transform="matrix(1 0 0 1 506.9665 829.5709)" class="st2 st3 st4">1.1Kw</text>
	<text transform="matrix(1 0 0 1 424.3665 889.5709)" class="st2 st3 st4">10.1寸电容触摸屏</text>
	<text transform="matrix(1 0 0 1 488.3665 946.7106)" class="st2 st3 st4">手机支付</text>
	<text transform="matrix(1 0 0 1 468.9665 1009.5709)" class="st2 st3 st4">-18～-22℃</text>
	<text transform="matrix(1 0 0 1 499.0665 1069.5709)" class="st2 st3 st4">3G网络</text>
	<text transform="matrix(1 0 0 1 496.8665 1129.5709)" class="st2 st3 st4">NAYAX</text>
</g>
</svg>
