<?xml version="1.0" encoding="utf-8"?>
<!-- Generator: Adobe Illustrator 21.0.0, SVG Export Plug-In . SVG Version: 6.00 Build 0)  -->
<svg version="1.1" id="图层_1" xmlns="http://www.w3.org/2000/svg" xmlns:xlink="http://www.w3.org/1999/xlink" x="0px" y="0px"
	 viewBox="0 0 750 1575.9" style="enable-background:new 0 0 750 1575.9;" xml:space="preserve">
<style type="text/css">
	.st0{fill:#FFFFFF;}
	.st1{fill:#EDEDED;}
	.st2{fill:none;}
	.st3{fill:#333333;}
	.st4{font-family:'MicrosoftYaHei';}
	.st5{font-size:28px;}
	.st6{font-family:'MicrosoftYaHei-Bold';}
	.st7{font-size:32px;}
</style>
<rect class="st0" width="750" height="1575.9"/>
<rect y="128.5" class="st1" width="750" height="60"/>
<rect y="248.5" class="st1" width="750" height="60"/>
<rect y="368.5" class="st1" width="750" height="60"/>
<rect y="488.5" class="st1" width="750" height="60"/>
<rect y="608.5" class="st1" width="750" height="60"/>
<rect y="728.5" class="st1" width="750" height="60"/>
<rect y="848.5" class="st1" width="750" height="60"/>
<rect y="968.5" class="st1" width="750" height="60"/>
<rect y="1088.5" class="st1" width="750" height="60"/>
<rect y="1208.5" class="st1" width="750" height="60"/>
<rect y="1328.5" class="st1" width="750" height="60"/>
<rect y="1448.5" class="st1" width="750" height="60"/>
<rect x="20.3" y="142.1" class="st2" width="354.7" height="1532.8"/>
<text transform="matrix(1 0 0 1 132.493 169.5709)"><tspan x="0" y="0" class="st3 st4 st5">品&#160;&#160;&#160;&#160;&#160;&#160;名</tspan><tspan x="1.1" y="60" class="st3 st4 st5">机器型号</tspan><tspan x="4.7" y="120" class="st3 st4 st5">高&#160;&#160;&#160;&#160;&#160;&#160;度</tspan><tspan x="4.7" y="180" class="st3 st4 st5">宽&#160;&#160;&#160;&#160;&#160;&#160;度</tspan><tspan x="4.7" y="240" class="st3 st4 st5">深&#160;&#160;&#160;&#160;&#160;&#160;度</tspan><tspan x="1.1" y="300" class="st3 st4 st5">货道规格</tspan><tspan x="1.1" y="360" class="st3 st4 st5">货道数量</tspan><tspan x="7.7" y="420" class="st3 st4 st5">取 物 口</tspan><tspan x="1.1" y="480" class="st3 st4 st5">机器重量</tspan><tspan x="1.1" y="540" class="st3 st4 st5">输入电压</tspan><tspan x="1.1" y="600" class="st3 st4 st5">最大电流</tspan><tspan x="1.1" y="660" class="st3 st4 st5">最大功率</tspan><tspan x="1.1" y="720" class="st3 st4 st5">微波功率</tspan><tspan x="1.1" y="780" class="st3 st4 st5">人机界面</tspan><tspan x="7.7" y="840" class="st3 st4 st5">工 控 机</tspan><tspan x="1.1" y="900" class="st3 st4 st5">支付方式</tspan><tspan x="1.1" y="960" class="st3 st4 st5">温控系统</tspan><tspan x="1.1" y="1020" class="st3 st4 st5">数据通讯</tspan><tspan x="1.1" y="1080" class="st3 st4 st5">设备安全</tspan><tspan x="1.1" y="1140" class="st3 st4 st5">食品安全</tspan><tspan x="1.1" y="1200" class="st3 st4 st5">食品卫生</tspan><tspan x="1.1" y="1260" class="st3 st4 st5">操作系统</tspan><tspan x="1.1" y="1320" class="st3 st4 st5">后台管理</tspan><tspan x="7.7" y="1380" class="st3 st4 st5">数 据 库</tspan></text>
<g>
	<rect x="375" y="142.1" class="st2" width="354.7" height="1676.8"/>
	<text transform="matrix(1 0 0 1 504.3665 169.5709)"><tspan x="0" y="0" class="st3 st4 st5">双子座</tspan><tspan x="-61.7" y="60" class="st3 st4 st5">VMC08855W0</tspan><tspan x="-19.5" y="120" class="st3 st4 st5">1915mm</tspan><tspan x="-19.5" y="180" class="st3 st4 st5">1382mm</tspan><tspan x="-10.1" y="240" class="st3 st4 st5">976mm</tspan><tspan x="-78.3" y="300" class="st3 st4 st5">25*20*6/8/10cm</tspan><tspan x="29.2" y="360" class="st3 st4 st5">88</tspan><tspan x="22.6" y="420" class="st3 st4 st5">1个</tspan><tspan x="-0.5" y="480" class="st3 st4 st5">480Kg</tspan><tspan x="-30" y="540" class="st3 st4 st5">220V50Hz</tspan><tspan x="18" y="600" class="st3 st4 st5">20A</tspan><tspan x="2.6" y="660" class="st3 st4 st5">3.5Kw</tspan><tspan x="2.6" y="720" class="st3 st4 st5">2.6Kw</tspan><tspan x="-66.8" y="780" class="st3 st4 st5">55寸红外触摸屏</tspan><tspan x="-31.3" y="840" class="st3 st4 st5">INBOX310</tspan><tspan x="-16" y="900" class="st3 st4 st5">手机支付</tspan><tspan x="-4.3" y="960" class="st3 st4 st5">0-65°C</tspan><tspan x="-85.1" y="1020" class="st3 st4 st5">4G/WIFI/有线网络</tspan><tspan x="0" y="1080" class="st3 st4 st5">摄像头</tspan><tspan x="-16" y="1140" class="st3 st4 st5">臭氧杀菌</tspan><tspan x="-32" y="1200" class="st3 st4 st5">紫外线消毒</tspan><tspan x="-91.8" y="1260" class="st3 st4 st5">Windows/Android</tspan><tspan x="-31.5" y="1320" class="st3 st4 st5">HONTECH</tspan><tspan x="-16" y="1380" class="st3 st4 st5">云服务器</tspan></text>
</g>
<rect x="20.3" y="42" class="st2" width="709.5" height="78"/>
<text transform="matrix(1 0 0 1 20.2671 71.252)" class="st6 st7">发明专利号：201610197808.2</text>
</svg>
